<?xml version="1.0" encoding="UTF-8"?>
<svg id="Layer_1" data-name="Layer 1" xmlns="http://www.w3.org/2000/svg" viewBox="0 0 775.48 248.62">
  <defs>
    <style>
      .cls-1 {
        fill: red;
      }

      .cls-1, .cls-2 {
        stroke-width: 0px;
      }

      .cls-2 {
        fill: #4ad424;
      }
    </style>
  </defs>
  <g>
    <path class="cls-1" d="M270.69,229.27h-5.06c-.49,0-1.11-.37-1.36-.74-2.59-2.96-6.17-3.95-9.62-2.71-3.58,1.36-5.55,4.32-5.68,8.27-.12,3.95,1.36,7.16,5.06,8.88,3.33,1.48,6.54,1.23,9.38-1.11.99-.86,1.73-2.22,2.59-3.33l-.37-.37h-9.75v-4.32h16.04c1.11,6.91-4.2,13.2-11.97,14.56-7.4,1.36-14.68-3.58-16.16-11.1-1.48-7.53,3.08-14.56,10.73-16.41,6.67-1.74,14.69,2.45,16.17,8.38Z"/>
    <path class="cls-1" d="M458.36,237.9h-9.87v-4.2c.49,0,.86-.12,1.23-.12h14.56c.86,5.8-2.84,12.46-10.36,14.44-7.65,1.97-15.55-2.34-17.4-9.75-1.97-7.9,2.22-15.3,9.99-17.27,7.03-1.85,15.18,2.22,16.66,8.27h-5.18c-.37,0-.86-.37-1.11-.62-2.84-3.08-6.42-4.07-9.87-2.71-3.7,1.48-5.8,4.81-5.55,9.01.12,3.45,1.6,6.29,4.81,7.9,3.08,1.6,6.17,1.36,9.13-.49,1.48-1.25,2.59-2.48,2.96-4.46Z"/>
    <path class="cls-1" d="M364.71,247.77h-4.94c-.37,0-.86-.25-.99-.49-2.22-3.82-4.44-7.65-6.91-11.85,1.11,0,2.1,0,2.96-.12,3.7-.37,5.68-3.58,4.2-6.91-.74-1.73-2.22-2.47-3.95-2.59-1.48-.12-2.96,0-4.57,0v21.96h-5.31v-26.77c4.69.25,9.5-.62,14.19.86,3.21.99,5.18,4.07,5.18,7.77.12,4.07-1.48,6.66-4.81,8.02-.25.12-.62.25-.99.37,1.99,3.21,3.97,6.42,5.94,9.75Z"/>
    <path class="cls-1" d="M386.3,247.65c3.08-7.77,6.17-15.42,9.25-22.95.12-.25.12-.37.25-.62,1.36-3.58,1.48-3.58,5.31-3.08.37,0,.86.37.99.74,3.45,8.51,6.79,17.03,10.12,25.54v.49h-5.06c-.37,0-.86-.49-.99-.99-.62-1.36-.74-3.33-1.85-3.95-1.23-.74-3.08-.25-4.69-.25s-3.21-.12-4.81,0c-.49,0-1.11.49-1.36.99-.62,1.36-.74,3.45-1.73,3.95-1.36.62-3.33.13-5.43.13ZM403.21,238.15c-1.36-3.58-2.59-7.03-3.95-10.86-1.36,3.82-2.59,7.28-3.82,10.86h7.77Z"/>
    <path class="cls-1" d="M294.13,247.77c1.11-2.84,2.22-5.55,3.33-8.27,2.34-5.68,4.69-11.35,6.91-17.15.49-1.11.99-1.48,2.22-1.48,3.08.12,3.21,0,4.32,2.96,2.96,7.4,5.92,14.93,8.88,22.33.12.49.25.86.49,1.6h-5.18c-.37,0-.86-.62-.99-.99-.62-1.36-.74-3.33-1.85-3.95-1.11-.74-2.96-.25-4.57-.25-1.48,0-2.96.12-4.44,0-1.23-.12-1.6.37-1.97,1.48q-1.36,3.82-5.43,3.82c-.36-.1-.98-.1-1.72-.1ZM303.39,238.15h7.65c-1.23-3.58-2.47-6.91-3.82-10.86-1.36,3.83-2.6,7.28-3.83,10.86Z"/>
    <path class="cls-1" d="M505.25,247.77h-14.93v-26.65h14.81v4.69h-9.38v6.05h9.25v4.81h-9.25v6.54h9.38c.12,1.48.12,2.96.12,4.56Z"/>
    <path class="cls-1" d="M509.2,243.46h94.27v2.59h-94.27v-2.59Z"/>
    <path class="cls-1" d="M158.16,246.05v-2.59h84.27v2.59h-84.27Z"/>
  </g>
  <g>
    <path class="cls-1" d="M250.48,206v-31.27h-13.37v-10.13h39.47v10.13h-13.37v31.27h-12.73Z"/>
    <path class="cls-1" d="M280.41,206v-41.4h12.7v41.4h-12.7Z"/>
    <path class="cls-1" d="M312.35,196.32h21.2v9.68h-33.73v-41.4h33.45v9.68h-20.92v5.76h17.99v9.68h-17.99v6.6h0ZM312.02,154.02h10.29l8.31,7.61h-9.4l-4.06-3.89-4.06,3.89h-9.4l8.32-7.61ZM327.74,148.26h8.28l-4.39,6.6h-6.71l2.82-6.6Z"/>
    <path class="cls-1" d="M367.96,164.6h11.94v41.4h-12.7l-16.14-23.3v23.3h-11.94v-41.4h12.7l16.14,23.3v-23.3Z"/>
    <path class="cls-1" d="M430.79,164.6h11.94v41.4h-12.7l-16.14-23.3v23.3h-11.94v-41.4h12.7l16.14,23.3v-23.3Z"/>
    <path class="cls-1" d="M486.76,185.86v19.64c-4.25.71-8.17,1.06-11.75,1.06-8.99,0-15.7-1.76-20.13-5.29-4.43-3.52-6.64-8.79-6.64-15.8,0-4.51,1.01-8.37,3.03-11.57s5.06-5.64,9.12-7.33c4.06-1.69,9.1-2.53,15.12-2.53,3.39,0,6.65.31,9.76.92v10.18c-2.83-.56-5.72-.84-8.67-.84-3.67.02-6.62.44-8.84,1.26s-3.83,2.06-4.83,3.71-1.5,3.78-1.5,6.39c0,3.54,1.04,6.21,3.1,8.01,2.07,1.8,5.26,2.7,9.57,2.7h.84v-10.52h11.82Z"/>
    <path class="cls-1" d="M523.54,206l-2.85-9.43h-15.02l-2.85,9.43h-12.31l13.45-41.4h18.52l13.48,41.4h-12.42ZM508.55,186.95h9.23l-4.62-15.24-4.61,15.24Z"/>
  </g>
  <g>
    <path class="cls-2" d="M84.75,116.98h-3.33c-8.88,0-17.89-.25-26.77,0-14.07.37-27.52,3.33-40.22,9.38-4.81,2.22-9.01,5.55-13.57,8.27-.25.12-.37.25-.86.25.49-.37.99-.86,1.36-1.23,15.42-12.46,32.45-22.7,50.22-31.34,25.91-12.46,53.06-21.1,81.43-26.16,14.07-2.47,28.26-4.2,42.57-4.57,32.7-.99,65.52-1.73,98.22-2.71,1.11,0,2.34-.25,3.33-.86,16.04-9.25,31.96-18.51,47.87-28.01,13.2-7.9,26.16-15.92,40.1-22.33,15.05-6.91,30.72-11.72,47.13-14.44C432.34-.1,452.7-.35,472.94.27c16.78.49,33.56,1.73,50.22,3.7,24.55,2.84,48.86,7.03,73.04,12.46,24.31,5.43,48.37,12.09,72.06,19.62,25.17,8.02,49.85,17.27,74.65,26.53,10.61,3.95,21.47,7.53,32.2,11.35.12,0,.25.12.37.37-1.73-.37-3.45-.49-5.06-.99-11.97-3.21-24.06-6.42-35.91-9.87-26.4-7.53-52.56-15.42-79.09-22.58-18.75-5.06-37.88-9.5-56.88-13.45-17.89-3.7-35.91-6.54-54.04-9.5-17.27-2.84-34.79-4.44-52.32-5.68-19-1.23-38.13-1.85-57.25-1.11-29.86,1.23-57.99,8.76-84.52,22.58-16.41,8.64-32.94,17.15-49.35,25.54-5.92,3.08-12.09,5.68-18.14,8.51-.25.12-.62.25-1.11.49h52.07v-.37c-7.53-2.84-15.05-5.8-22.7-8.64v-.49c13.33-7.03,27.89-8.88,43.06-9.75v17.4c0,1.11.25,1.6,1.48,1.6,31.09-.25,62.06-.37,93.16-.74,18.14-.25,36.15-.74,54.17-1.48,13.7-.62,27.52-1.85,41.21-3.08,16.16-1.36,32.33-3.82,48.24-7.03,10.98-2.22,21.84-4.81,32.33-8.88.74-.25,1.6-.25,2.34-.12,19.62,4.69,39.24,9.5,58.86,14.19,10.73,2.59,21.59,4.69,32.33,7.03.12,0,.25.12.86.37-2.71.12-4.94.37-7.28.37-24.06.99-48.12,2.1-72.18,2.96-20.24.86-40.47,1.6-60.71,2.22-20.36.74-40.59,1.36-60.95,1.97-29.74.86-59.6,1.6-89.33,2.22-23.81.49-47.5.99-71.32,1.23-45.04.49-89.95.62-134.98.99-17.77.12-35.66.49-53.43.99-18.38.49-36.52,2.84-54.54,6.42-10.12,1.97-20.11,4.69-29.37,9.5-3.21,1.6-6.29,3.58-9.01,5.92-4.57,3.82-3.95,7.77,1.36,10.49,2.33,1.48,4.68,2.34,7.27,3.45Z"/>
    <path class="cls-2" d="M674.78,147.58c-1.6.74-2.59,1.48-3.82,1.85-6.05,1.97-12.09,3.95-18.26,5.68-5.8,1.73-11.72,3.21-17.52,4.57-1.36.37-1.73,1.23-2.22,2.22-6.91,14.31-4.57,29.61,6.66,41.21,1.85,1.97,4.07,3.7,6.17,5.55.86.86,1.73.86,2.84.62,12.09-3.08,24.18-6.29,36.28-9.38.62-.12,1.36-.25,2.34-.49-.25.99-.25,1.85-.62,2.59-1.23,2.34-2.34,4.81-3.95,6.91-7.16,10.12-16.04,18.38-27.52,23.2-9.62,4.07-19.49,5.18-29.49,1.85-4.81-1.6-8.76-4.57-12.59-7.65-4.57-3.7-9.01-7.65-13.94-10.98-8.39-5.92-18.01-8.88-28.26-9.38-9.99-.49,8.31-.32-1.68-.19-9.38,0-18.88.25-28.26.37h-1.48c.25-.62.37-1.23.49-1.73,3.82-10.36,7.68-21.18,11.51-31.54.37-1.11.86-1.48,2.1-1.48,1.55-.02.89-.04,5.47-.34,9.75-.37,19.25-2.1,28.01-6.79,6.42-3.45,11.47-8.39,16.04-13.94,6.42-8.14,14.93-12.34,25.05-13.33,15.18-1.6,29.49,1.6,43.19,8.14.99.61,1.98,1.48,3.46,2.46Z"/>
    <path class="cls-2" d="M244.16,205.95c-3.58,2.1-7.53,1.11-11.23,1.23-3.82.25-7.77.25-11.6.25-10.49.25-21.1.37-31.59.62-5.31.12-9.38,2.59-12.34,7.03-4.44,6.79-10.24,11.97-17.52,15.42-25.05,12.09-54.78-2.22-60.95-29.24-5.8-25.29,12.09-50.09,37.88-52.44,16.66-1.48,29.98,4.81,39.85,18.38,3.08,4.32,7.28,6.54,12.59,6.54,12.96-.12,25.79-.37,38.74-.49.86,0,1.6,0,1.97.99,4.57,10.49,9.25,20.85,13.94,31.34.14,0,.26.24.26.37ZM111.03,191.76c-.12,16.41,13.33,29.98,29.86,29.98,16.53.12,30.11-13.33,30.11-29.74s-13.2-30.23-29.74-30.23c-16.66-.12-30.23,13.21-30.23,29.99Z"/>
    <path class="cls-2" d="M610.74,88.85c-35.04,6.79-59.23,27.64-76.13,57.87.49-2.22,1.11-4.69,1.36-7.16.99-9.25-2.84-16.16-10.36-21.35-6.54-4.57-14.07-6.91-21.84-8.64-10.98-2.47-22.09-3.7-33.19-3.82-19.62-.25-39.24.12-58.85-.12-21.84-.37-43.56-1.11-65.39-1.73-14.81-.37-29.61-.86-44.54-1.36-19.62-.62-39.36-1.36-58.98-2.1-12.96-.49-25.91-.86-38.87-1.36-6.79-.25-13.7-.49-20.48-.62,7.28,0,14.68-.12,21.96,0,27.14.74,54.29,1.6,81.43,2.34,16.9.49,33.81.99,50.71,1.36,18.26.37,36.52.99,54.66.86,19-.12,38-.99,56.88-1.73,11.72-.49,23.44-1.23,35.16-1.97,11.72-.74,23.32-1.73,35.04-2.71,10.12-.86,20.24-1.73,30.35-2.59,12.34-1.11,24.8-2.34,37.14-3.33,7.28-.62,14.68-1.11,21.96-1.73.75-.11,1.36-.11,1.98-.11Z"/>
    <path class="cls-2" d="M551.52,146.6c.49-.99.86-1.97,1.36-2.96,13.45-24.68,33.93-40.22,61.2-46.52,20.98-4.81,41.95-4.2,62.31,3.45,21.96,8.14,37.76,23.32,48.37,43.93.25.37.37.86.37,1.36-.49-.74-.99-1.6-1.48-2.34-9.13-13.94-21.84-23.69-37.02-30.23-13.08-5.68-26.77-8.51-40.96-9.38-11.72-.74-23.32-.37-34.92,1.85-21.72,4.32-38.99,15.55-52.69,32.82-2.1,2.71-4.2,5.43-6.29,8.14q-.13,0-.25-.12Z"/>
    <path class="cls-2" d="M226.52,164.73c-2.59-3.58-4.94-7.53-7.9-11.1-9.25-11.47-21.1-19.37-34.79-24.43-16.29-6.05-33.07-7.9-50.22-6.05-20.24,2.1-37.39,10.98-51.95,25.05-4.94,4.81-9.25,9.99-13.2,15.55-.49.62-.86,1.36-1.6,1.85.62-1.36,1.11-2.71,1.85-4.07,13.57-26.16,34.42-42.44,63.79-47.13,17.27-2.71,34.18-1.36,50.34,5.68,18.88,8.14,32.33,22.21,41.58,40.35.74,1.47,1.48,2.95,2.1,4.3Z"/>
  </g>
</svg>