<?xml version="1.0" encoding="UTF-8"?>
<svg id="Layer_1" data-name="Layer 1" xmlns="http://www.w3.org/2000/svg" viewBox="0 0 611.25 288.91">
  <defs>
    <style>
      .cls-1 {
        stroke-width: 0px;
      }
    </style>
  </defs>
  <g>
    <path class="cls-1" d="M136.23,288.91c-1.98,0-3.71-.51-5.12-1.53-1.67-1.22-2.55-2.93-2.55-4.94v-8.43c0-1.98.88-3.67,2.55-4.86,1.42-1.02,3.15-1.53,5.13-1.53,3.12,0,5.39,1.1,6.73,3.26l.68,1.09-2.85,1.86-.69-1.23c-.64-1.15-1.93-1.71-3.92-1.71-1.27,0-2.3.28-3.14.87-.82.56-1.2,1.28-1.2,2.25v8.45c0,1,.39,1.75,1.23,2.33.84.6,1.88.89,3.17.89s2.32-.29,3.2-.9c.83-.61,1.23-1.35,1.23-2.34v-2.13h-5.56v-3.23h8.84v5.36c0,2.01-.88,3.71-2.54,4.92-1.43,1.02-3.16,1.53-5.16,1.53Z"/>
    <path class="cls-1" d="M180.5,288.66l-2.41-6.48h-6.42l-2.41,6.48h-3.5l7.69-20.78h2.86l7.69,20.78h-3.5ZM176.89,278.89l-2-5.42-2,5.42h4.01Z"/>
    <path class="cls-1" d="M218.21,288.66l-6.09-8.1h-2.14v8.1h-3.28v-20.78h7.74c4.41,0,6.88,2.21,6.97,6.21,0,3.66-1.89,5.87-5.36,6.36l6.21,8.21h-4.05ZM214.47,277.38c3.22,0,3.67-1.55,3.67-3.23,0-1.59-.42-3.05-3.5-3.05h-4.65v6.29h4.49Z"/>
    <path class="cls-1" d="M257.04,288.66l-2.41-6.48h-6.42l-2.41,6.48h-3.5l7.69-20.78h2.86l7.69,20.78h-3.5ZM253.42,278.89l-2-5.42-2,5.42h4.01Z"/>
    <path class="cls-1" d="M290.53,288.91c-1.98,0-3.71-.51-5.12-1.53-1.67-1.22-2.55-2.93-2.55-4.94v-8.43c0-1.98.88-3.67,2.55-4.86,1.42-1.02,3.15-1.53,5.13-1.53,3.12,0,5.39,1.1,6.73,3.26l.68,1.09-2.85,1.86-.69-1.23c-.64-1.15-1.93-1.71-3.92-1.71-1.27,0-2.3.28-3.14.87-.82.56-1.2,1.28-1.2,2.25v8.45c0,1,.39,1.75,1.23,2.33.84.6,1.88.89,3.16.89s2.32-.29,3.2-.9c.83-.6,1.22-1.35,1.22-2.33v-2.13h-5.56v-3.23h8.84v5.36c0,2.01-.88,3.71-2.54,4.92-1.43,1.02-3.16,1.53-5.16,1.53Z"/>
    <polygon class="cls-1" points="322.56 288.66 322.56 267.87 335.98 267.87 335.98 271.15 325.83 271.15 325.83 276.64 335.21 276.64 335.21 279.97 325.83 279.97 325.83 285.38 335.98 285.38 335.98 288.66 322.56 288.66"/>
    <path class="cls-1" d="M397.13,288.91c-2.07,0-3.88-.52-5.38-1.54-1.75-1.2-2.68-2.9-2.68-4.93v-8.38c0-2.05.93-3.76,2.69-4.94,1.5-1,3.31-1.51,5.37-1.51s3.9.51,5.39,1.5c1.76,1.18,2.69,2.89,2.69,4.94v8.38c0,2.03-.93,3.74-2.68,4.93-1.5,1.02-3.32,1.54-5.41,1.54ZM397.11,270.84c-1.41.01-2.58.31-3.47.89-.9.57-1.29,1.28-1.29,2.31v8.39c0,1,.4,1.7,1.3,2.28.93.61,2.1.92,3.49.92s2.57-.31,3.47-.91c.91-.61,1.34-1.34,1.34-2.29v-8.39c0-1.05-.41-1.77-1.32-2.35-.89-.56-2.08-.84-3.51-.84Z"/>
    <polygon class="cls-1" points="434.25 288.66 434.25 271.15 428.21 271.15 428.21 267.87 443.58 267.87 443.58 271.15 437.53 271.15 437.53 288.66 434.25 288.66"/>
    <path class="cls-1" d="M474.61,288.91c-2.07,0-3.88-.52-5.38-1.54-1.75-1.2-2.68-2.9-2.68-4.93v-8.38c0-2.05.93-3.76,2.69-4.94,1.5-1,3.31-1.5,5.37-1.5s3.9.51,5.39,1.5c1.76,1.18,2.69,2.89,2.69,4.94v8.38c0,2.03-.93,3.74-2.68,4.93-1.5,1.02-3.32,1.54-5.41,1.54ZM474.59,270.84c-1.41.01-2.58.31-3.47.89-.9.57-1.29,1.28-1.29,2.31v8.39c0,1,.4,1.7,1.3,2.28.93.61,2.1.92,3.49.92s2.57-.31,3.47-.91c.91-.61,1.34-1.34,1.34-2.29v-8.39c0-1.04-.41-1.77-1.32-2.36-.89-.56-2.08-.84-3.51-.84Z"/>
  </g>
  <g>
    <path class="cls-1" d="M20.84,211.76l4.32-14.88h52.45l4.32,14.88h-1.83c-.92-1.2-2-2.42-3.22-3.67-1.41-1.44-2.84-2.73-4.28-3.87-3.64-2.88-6.77-4.32-9.37-4.32-2.99,0-4.48,1.81-4.48,5.42v29.14c0,2.28.05,4.08.16,5.38.14,1.85.41,3.37.82,4.56.98,2.91,2.93,4.43,5.87,4.56v1.67l-14.18-.33-14.88.33v-1.67c3.23-.14,5.38-1.66,6.44-4.56.46-1.2.76-2.72.9-4.56.11-1.28.16-3.07.16-5.38v-29.14c0-3.61-1.49-5.42-4.48-5.42-2.61,0-5.73,1.44-9.37,4.32-1.44,1.14-2.87,2.43-4.28,3.87-1.22,1.25-2.3,2.47-3.22,3.67h-1.83Z"/>
    <path class="cls-1" d="M109.39,205.16c0-2.61-.38-4.43-1.14-5.46-.52-.71-1.56-1.3-3.14-1.79v-1.34c.87,0,1.85.01,2.93.04l5.83.24c1.06.03,2.01.04,2.85.04s1.79-.01,2.85-.04l5.83-.24c1.09-.03,2.06-.04,2.93-.04v1.34c-2.85.73-4.28,3.21-4.28,7.42v28.81c0,2.26.05,4.05.16,5.38.11,1.85.34,3.37.69,4.56.84,2.91,2.47,4.43,4.89,4.56v1.67h-26.86v-1.67c2.74-.14,4.58-1.66,5.5-4.56.38-1.2.64-2.72.77-4.56.11-1.3.16-3.1.16-5.38v-28.98Z"/>
    <path class="cls-1" d="M157.59,207.24c0-5.52-1.64-8.63-4.93-9.33v-1.34c1,0,2.11.01,3.3.04l8.97.28,36.15-.33,3.91,14.71h-1.83c-6.47-7.8-14.12-11.7-22.95-11.7h-7.95v21.11h4.93c1.96,0,3.74-.12,5.34-.37,1.87-.27,3.53-.72,4.97-1.34,3.45-1.47,5.75-3.93,6.89-7.38h1.59v20.79h-1.34c-.76-2.93-2.79-5.18-6.07-6.72-3.04-1.41-6.83-2.12-11.37-2.12h-4.93v12.19c0,4.29.67,7.25,2,8.88,1.44,1.74,4.17,2.61,8.19,2.61,4.86,0,9.85-1.7,14.96-5.09,2.17-1.47,4.28-3.18,6.32-5.14,1.85-1.77,3.57-3.67,5.18-5.71l1.34.57-6.07,18.79-39.25-.33-14.18.33v-1.67c2.93-.14,4.89-1.66,5.87-4.56.41-1.2.68-2.72.82-4.56.11-1.3.16-3.1.16-5.38v-27.22ZM165.45,191.22l10.11-14.88h8.93l10.19,14.88h-5.5l-9.21-8.03-9.17,8.03h-5.34ZM188.89,180.02l10.43-12.43c1.03-1.2,1.82-1.98,2.36-2.36.9-.6,1.94-.9,3.14-.9,3.12,0,4.69,1.3,4.69,3.91,0,1.69-1.7,3.55-5.09,5.58l-9.94,6.19h-5.58Z"/>
    <path class="cls-1" d="M230.03,196.56c1.11,0,2.76.05,4.93.16,2.2.11,3.79.16,4.77.16s2.61-.05,4.89-.16c2.31-.11,4.01-.16,5.09-.16l32.97,32.16v-13.94c0-1.74-.1-3.37-.28-4.89-.24-1.9-.64-3.6-1.18-5.09-1.39-3.75-3.64-6.02-6.77-6.81v-1.43c.76,0,1.63.01,2.61.04l7.74.28c1.01,0,2.62-.05,4.85-.16,2.26-.11,3.97-.16,5.13-.16v1.34c-3.04.82-5.38,3.11-7.01,6.89-1.33,3.04-2,6.37-2,9.98v34.52c0,.95-.19,1.66-.57,2.12-.3.38-.64.57-1.02.57h-.16c-.33,0-.79-.27-1.39-.81-.22-.19-.46-.44-.73-.73l-41.77-43.77v25.8c0,1.71.09,3.33.29,4.85.27,1.9.68,3.6,1.22,5.09,1.39,3.78,3.64,6.05,6.77,6.81v1.43c-.76,0-1.64-.01-2.65-.04l-7.7-.29c-1.01,0-2.64.05-4.89.16-2.26.11-3.97.16-5.13.16v-1.34c3.07-.81,5.42-3.11,7.05-6.89,1.3-3.02,1.96-6.33,1.96-9.94v-21.19c0-1.98-.05-3.53-.16-4.65-.14-1.58-.41-2.89-.82-3.95-1.01-2.55-3.02-4.14-6.03-4.77v-1.34Z"/>
    <path class="cls-1" d="M356.87,196.56c1.11,0,2.76.05,4.93.16,2.2.11,3.79.16,4.77.16s2.61-.05,4.89-.16c2.31-.11,4.01-.16,5.09-.16l32.97,32.16v-13.94c0-1.74-.1-3.37-.28-4.89-.24-1.9-.64-3.6-1.18-5.09-1.39-3.75-3.64-6.02-6.77-6.81v-1.43c.76,0,1.63.01,2.61.04l7.74.28c1.01,0,2.62-.05,4.85-.16,2.26-.11,3.97-.16,5.13-.16v1.34c-3.04.82-5.38,3.11-7.01,6.89-1.33,3.04-2,6.37-2,9.98v34.52c0,.95-.19,1.66-.57,2.12-.3.38-.64.57-1.02.57h-.16c-.33,0-.79-.27-1.39-.81-.22-.19-.46-.44-.73-.73l-41.77-43.77v25.8c0,1.71.09,3.33.29,4.85.27,1.9.68,3.6,1.22,5.09,1.39,3.78,3.64,6.05,6.77,6.81v1.43c-.76,0-1.64-.01-2.65-.04l-7.7-.29c-1.01,0-2.64.05-4.89.16-2.26.11-3.97.16-5.13.16v-1.34c3.07-.81,5.42-3.11,7.05-6.89,1.3-3.02,1.96-6.33,1.96-9.94v-21.19c0-1.98-.05-3.53-.16-4.65-.14-1.58-.41-2.89-.82-3.95-1.01-2.55-3.02-4.14-6.03-4.77v-1.34Z"/>
    <path class="cls-1" d="M483.32,234.14c0-3.61-.58-6.03-1.75-7.25-1.06-1.11-3.37-1.93-6.93-2.45v-1.34l14.18.37,14.75-.37v1.34c-3.72.27-5.58,4.23-5.58,11.86,0,2.01.04,3.52.12,4.52.14,1.66.43,3.15.9,4.48-4.48,2.31-8.64,3.97-12.47,4.97-4.32,1.14-9.1,1.71-14.35,1.71-8.61,0-15.88-2.4-21.8-7.21-3.07-2.47-5.43-5.43-7.09-8.88-1.77-3.69-2.65-7.78-2.65-12.27s.88-8.61,2.65-12.31c1.66-3.42,4.02-6.38,7.09-8.88,5.92-4.81,13.19-7.21,21.8-7.21,10.41,0,19.14,1.83,26.21,5.5l-5.09,16.22h-1.3c-.76-5.57-2.43-9.98-5.01-13.25-3.07-3.86-7.23-5.79-12.47-5.79-3.18,0-5.98.86-8.4,2.57-2.15,1.52-3.94,3.67-5.38,6.44-1.28,2.42-2.24,5.2-2.89,8.36-.57,2.74-.86,5.53-.86,8.35s.22,5.68.65,8.31c.52,3.18,1.32,5.96,2.4,8.35,1.28,2.77,2.93,4.92,4.97,6.44,2.31,1.71,5.07,2.57,8.27,2.57,6.68,0,10.03-3.41,10.03-10.23v-4.93Z"/>
    <path class="cls-1" d="M542.48,228.96l-3.18,6.48c-1.33,3.21-2,5.49-2,6.85,0,3.61,2.12,5.84,6.36,6.68v1.67c-.76,0-1.64-.01-2.65-.04l-7.7-.29c-1.01,0-2.64.05-4.89.16-2.26.11-3.97.16-5.14.16v-1.51c1.39-.27,3.15-1.51,5.3-3.71,2.47-2.55,4.71-5.71,6.72-9.46l20.42-38.72.53-.94c.43-.73.77-1.1,1.02-1.1h.16c.24,0,.65.41,1.22,1.22.46.65.86,1.3,1.18,1.96l21.72,40.76c1.85,3.42,3.48,5.87,4.89,7.34,1.22,1.22,2.54,1.97,3.95,2.24v1.92l-14.22-.33-13.57.33v-1.67l1.83-.45c.6-.16,1.06-.37,1.39-.61.84-.6,1.26-1.6,1.26-3.02,0-1.82-.94-4.52-2.81-8.11l-4.12-7.83h-17.69ZM543.82,226.11h15l-7.58-15.12-7.42,15.12Z"/>
  </g>
  <g>
    <path class="cls-1" d="M0,68.81c20.15-3.16,38.57-6.05,57.16-8.97,2.33,10.21,6.21,18.33,16.14,22.11,8.13,3.1,9.92,2.62,15.21-4.26C115.56,42.52,148.56,15.86,193.19,6.96c14.84-2.96,30.05-5.14,45.15-5.55C279.24.31,320.17-.27,361.08.12c33.28.32,66.04,4.8,96.36,20.06,22.25,11.2,40.17,27.7,56.3,46.34,4.24,4.89,7.89,10.31,12.34,14.99,1.47,1.54,4.78,2.5,6.9,2.06,12.93-2.67,17.6-7.76,21.96-23.58,18.47,2.98,37.05,5.98,56.31,9.09-3.36,4.55-6.82,8.1-8.92,12.32-3.91,7.86-10.68,8.9-18.17,9.23-33.19,1.46-65.62,7.53-97.65,16.06-35.05,9.33-68.78,22.03-100.73,39.28-1,.54-2.15.8-3.85.08,18.47-12.1,36.94-24.2,55.79-36.55-2.1-.37-4.34-1.07-6.6-1.12-48.02-.91-96.05-2.04-144.08-2.47-26.84-.24-53.69.6-80.53,1.22-10.83.25-21.63,1.22-33.27,1.91,18.69,12.2,36.62,23.91,54.56,35.61l-.58,1.27c-1.27-.52-2.59-.93-3.79-1.57-43.05-22.55-88.5-38.21-136.43-46.01-22.16-3.61-44.65-5.21-66.97-7.83-1.73-.2-3.98-.71-4.96-1.92-4.94-6.09-9.53-12.45-15.05-19.8ZM101.73,87.06c6.68,1.64,13.15,4.07,19.8,4.71,25.37,2.44,50.78,4.56,76.21,6.23,8.28.54,16.77,0,25-1.18,12.31-1.76,17.76-14.45,10.23-24.24-5.96-7.74-13.26-14.46-20.03-21.57-12.58-13.21-13.6-20.9-4.28-32.98-38.72-4.31-90.64,28.85-106.92,69.03ZM218.76,19.28c-8.37,10.11-8.56,14.86.21,22.4,6.08,5.23,13.17,9.32,20.01,13.61,15.24,9.55,29.51,19.78,31.16,39.99h30.95c-2.38-5.32-3.85-10.05-6.41-14.09-8.14-12.85-20.85-19.84-34.3-25.79-10.39-4.6-20.96-8.86-30.97-14.19-9.55-5.08-12.61-12.12-10.66-21.93Z"/>
    <path class="cls-1" d="M143.59,176.75c-35.11-3.54-71.28-4.92-104.62-20.66-9.27-4.38-17.23-10.49-16.4-22.65.51-7.48,9.62-21.31,16.47-22.95,2.58-.62,6.42,1.22,8.82,3.06,14.06,10.78,27.18,22.95,41.95,32.62,17.27,11.31,35.9,20.53,53.78,30.57Z"/>
    <path class="cls-1" d="M469.53,176.27c15.72-8.77,33.11-17.22,49.11-27.77,15.42-10.16,29.59-22.27,43.93-33.98,7.93-6.48,10.02-6.82,17.02.75.43.46.86.92,1.25,1.41,13.62,17.02,11.05,29.33-8.45,39.57-16.02,8.42-33.57,12.04-51.16,14.75-16.68,2.57-33.59,3.63-50.4,5.32-.96.1-1.95-.08-1.3-.05Z"/>
  </g>
</svg>