<?xml version="1.0" encoding="UTF-8"?>
<svg id="Layer_1" data-name="Layer 1" xmlns="http://www.w3.org/2000/svg" viewBox="0 0 72.214 82.048">
  <defs>
    <style>
      .cls-1 {
        fill: #0bb1e7;
      }

      .cls-1, .cls-2, .cls-3, .cls-4 {
        stroke-width: 0px;
      }

      .cls-2 {
        fill: #0be7d5;
      }

      .cls-3 {
        fill: #0b0fb5;
      }

      .cls-4 {
        fill: #0b5ee7;
      }
    </style>
  </defs>
  <path class="cls-1" d="M18.604,72.842c0-1.567.003-3.133,0-4.7-.011-3.967,1.337-7.382,4.204-10.142,2.132-2.053,4.685-3.251,7.633-3.669.746-.106,1.106.147,1.522.663,1.903,2.356,3.842,4.683,5.758,7.029.253.31.388.297.622-.033,1.69-2.392,3.404-4.766,5.094-7.157.202-.286.371-.366.724-.275,4.1,1.048,7.144,3.422,9.074,7.196.945,1.848,1.417,3.814,1.391,5.896-.012.958-.012,1.917.002,2.876.013.88.065,1.759.072,2.638.004.512-.073,1.025-.069,1.538.007.879.059,1.759.069,2.638.004.379-.021.763-.092,1.134-.026.138-.202.282-.344.357-1.724.91-3.561,1.532-5.459,1.929-1.954.408-3.923.796-5.905.998-2.178.221-4.381.33-6.569.282-2.097-.046-4.194-.31-6.281-.56-3.735-.448-7.37-1.359-10.955-2.485-.366-.115-.503-.26-.499-.651.02-1.833.009-3.666.009-5.499Z"/>
  <path class="cls-4" d="M23.879,46.021c.626,2.457,1.805,4.505,3.582,6.282-.611.236-1.196.426-1.751.681-5.043,2.312-8.165,6.194-9.376,11.595-.402,1.793-.328,3.632-.322,5.458.001.316,0,.631,0,1.062-1.89-.236-3.749-.449-5.602-.704-3.364-.463-6.636-1.324-9.879-2.316-.425-.13-.535-.344-.531-.738.021-2.127.025-4.255.043-6.383.015-1.812-.03-3.629.08-5.436.113-1.872.696-3.641,1.632-5.271,1.933-3.366,4.793-5.554,8.544-6.539.842-.221,1.726-.286,2.596-.386.126-.014.305.157.41.284,1.41,1.705,2.812,3.418,4.216,5.128.665.81,1.345,1.608,1.99,2.434.273.349.417.364.685-.018,1.144-1.635,2.318-3.249,3.482-4.871.047-.065.098-.128.202-.262Z"/>
  <path class="cls-2" d="M57.204,71.108c0-1.248.003-2.396,0-3.544-.012-4.629-1.813-8.476-5.136-11.639-1.662-1.581-3.61-2.703-5.779-3.442-.136-.046-.27-.099-.476-.174,2.057-2.048,3.291-4.478,3.811-7.368,1.481,1.8,2.902,3.526,4.366,5.305.617-.858,1.19-1.649,1.758-2.443.987-1.381,1.978-2.758,2.951-4.149.177-.253.362-.325.661-.314,5.902.222,11.211,4.635,12.443,10.474.238,1.126.369,2.293.386,3.444.049,3.481.018,6.964.018,10.484-4.719,2.294-9.76,3.101-15,3.367Z"/>
  <path class="cls-3" d="M36.173,22.881c-6.38.077-11.571-5.068-11.527-11.401C24.693,4.682,29.987-.12,36.364,.002c6.152.118,11.201,4.97,11.202,11.431,0,6.731-5.415,11.463-11.393,11.447Z"/>
  <path class="cls-1" d="M36.583,53.398c-5.628.093-10.513-4.745-10.5-10.524.012-5.774,4.802-10.535,10.567-10.542,5.581-.006,10.657,4.611,10.546,10.752-1.04,5.768-4.919,10.425-10.613,10.313Z"/>
  <path class="cls-4" d="M18.026,42.482c-5.072.056-9.486-3.799-10.354-8.681-.899-5.059,2.072-10.204,7.089-11.869,1.175-.39,2.399-.619,3.612-.539,3.976.261,7.041,2.081,8.989,5.614,.873,1.582,1.308,3.295,1.231,5.113-.009,.212-.135,.481-.296,.616-2.433,2.041-3.96,4.619-4.554,7.73-.088,.459-.364,.618-.666,.767-1.649,.815-2.993,1.268-5.05,1.25Z"/>
  <path class="cls-2" d="M54.002,42.484c-1.287.043-2.61-.299-3.902-.805-.252-.099-.376-.225-.421-.528-.383-2.587-1.361-4.93-3.135-6.867-.791-.864-1.768-1.555-2.642-2.345-.147-.132-.3-.377-.283-.553,.421-4.338,2.574-7.447,6.597-9.209,1.391-.609,2.878-.883,4.363-.782,3.589,.243,6.472,1.831,8.459,4.887,1.263,1.942,1.835,4.098,1.65,6.399-.26,3.236-1.714,5.86-4.34,7.794-1.848,1.361-3.931,2.033-6.347,2.009Z"/>
  <path class="cls-3" d="M30.618,31.191c-.004-2.64-.837-4.97-2.319-7.182,.755-.086,1.433-.226,2.111-.23,3.783-.022,7.566-.023,11.349,0,.689,.004,1.376,.152,2.179,.246-1.429,2.052-2.197,4.236-2.347,6.669-3.736-1.519-7.375-1.298-10.973,.496Z"/>
</svg>
